{"scene":0,"asset":{"generator":"ImageToStl.com","version":"2.0"},"scenes":[{"name":"Scene","nodes":[0]}],"nodes":[{"name":"Node0","children":[1,2,3,4,5,6,7,8,9,10,11,12,13,14,15,16,17,18,19,20,21]},{"name":"Node1","mesh":0},{"name":"Node2","mesh":1},{"name":"Node3","mesh":2},{"name":"Node4","mesh":3},{"name":"Node5","mesh":4},{"name":"Node6","mesh":5},{"name":"Node7","mesh":6},{"name":"Node8","mesh":7},{"name":"Node9","mesh":8},{"name":"Node10","mesh":9},{"name":"Node11","mesh":10},{"name":"Node12","mesh":11},{"name":"Node13","mesh":12},{"name":"Node14","mesh":13},{"name":"Node15","mesh":14},{"name":"Node16","mesh":15},{"name":"Node17","mesh":16},{"name":"Node18","mesh":17},{"name":"Node19","mesh":18},{"name":"Node20","mesh":19},{"name":"Node21","mesh":20}],"materials":[{"name":"Fur Material","pbrMetallicRoughness":{"baseColorFactor":[0.8,0.8,0.8,1.0],"metallicFactor":0.5,"roughnessFactor":0.75},"emissiveFactor":[0.0,0.0,0.0],"doubleSided":true},{"name":"Material.005","pbrMetallicRoughness":{"baseColorFactor":[1.0,1.0,1.0,1.0],"metallicFactor":0.5,"roughnessFactor":0.75},"emissiveFactor":[0.0,0.0,0.0],"doubleSided":true},{"name":"Material.006","pbrMetallicRoughness":{"baseColorFactor":[0.8,0.8,0.8,1.0],"metallicFactor":0.5,"roughnessFactor":0.75},"emissiveFactor":[0.0,0.0,0.0],"doubleSided":true},{"name":"Material.003","pbrMetallicRoughness":{"baseColorFactor":[0.098504,0.098504,0.098504,1.0],"metallicFactor":0.5,"roughnessFactor":0.75},"emissiveFactor":[0.0,0.0,0.0],"doubleSided":true},{"name":"Material.002","pbrMetallicRoughness":{"baseColorFactor":[0.581463,0.581463,0.581463,1.0],"metallicFactor":0.5,"roughnessFactor":0.75},"emissiveFactor":[0.0,0.0,0.0],"doubleSided":true},{"name":"Material.004","pbrMetallicRoughness":{"baseColorFactor":[0.214035,0.214035,0.214035,1.0],"metallicFactor":0.5,"roughnessFactor":0.75},"emissiveFactor":[0.0,0.0,0.0],"doubleSided":true},{"name":"Material.001","pbrMetallicRoughness":{"baseColorFactor":[0.8,0.8,0.8,1.0],"metallicFactor":0.5,"roughnessFactor":0.75},"emissiveFactor":[0.0,0.0,0.0],"doubleSided":true},{"name":"x1","pbrMetallicRoughness":{"baseColorFactor":[0.0,0.0,0.0,1.0],"metallicFactor":0.0,"roughnessFactor":1.0},"doubleSided":true}],"meshes":[{"name":"Mesh0","primitives":[{"indices":3,"material":7,"attributes":{"POSITION":0,"NORMAL":1,"TEXCOORD_0":2}}]},{"name":"Mesh0","primitives":[{"indices":7,"material":7,"attributes":{"POSITION":4,"NORMAL":5,"TEXCOORD_0":6}}]},{"name":"Mesh0","primitives":[{"indices":11,"material":7,"attributes":{"POSITION":8,"NORMAL":9,"TEXCOORD_0":10}}]},{"name":"Mesh0","primitives":[{"indices":15,"material":7,"attributes":{"POSITION":12,"NORMAL":13,"TEXCOORD_0":14}}]},{"name":"Mesh0","primitives":[{"indices":19,"material":7,"attributes":{"POSITION":16,"NORMAL":17,"TEXCOORD_0":18}}]},{"name":"Mesh0","primitives":[{"indices":23,"material":7,"attributes":{"POSITION":20,"NORMAL":21,"TEXCOORD_0":22}}]},{"name":"Mesh0","primitives":[{"indices":27,"material":7,"attributes":{"POSITION":24,"NORMAL":25,"TEXCOORD_0":26}}]},{"name":"Mesh0","primitives":[{"indices":31,"material":7,"attributes":{"POSITION":28,"NORMAL":29,"TEXCOORD_0":30}}]},{"name":"Mesh0","primitives":[{"indices":34,"material":0,"attributes":{"POSITION":32,"NORMAL":33}}]},{"name":"Mesh0","primitives":[{"indices":37,"material":0,"attributes":{"POSITION":35,"NORMAL":36}}]},{"name":"Mesh0","primitives":[{"indices":40,"material":0,"attributes":{"POSITION":38,"NORMAL":39}}]},{"name":"Mesh0","primitives":[{"indices":43,"material":0,"attributes":{"POSITION":41,"NORMAL":42}}]},{"name":"Mesh0","primitives":[{"indices":46,"material":7,"attributes":{"POSITION":44,"NORMAL":45}}]},{"name":"Mesh0","primitives":[{"indices":49,"material":7,"attributes":{"POSITION":47,"NORMAL":48}}]},{"name":"Mesh0","primitives":[{"indices":52,"material":7,"attributes":{"POSITION":50,"NORMAL":51}}]},{"name":"Mesh0","primitives":[{"indices":55,"material":1,"attributes":{"POSITION":53,"NORMAL":54}}]},{"name":"Mesh0","primitives":[{"indices":58,"material":2,"attributes":{"POSITION":56,"NORMAL":57}}]},{"name":"Mesh0","primitives":[{"indices":61,"material":3,"attributes":{"POSITION":59,"NORMAL":60}}]},{"name":"Mesh0","primitives":[{"indices":64,"material":4,"attributes":{"POSITION":62,"NORMAL":63}}]},{"name":"Mesh0","primitives":[{"indices":67,"material":5,"attributes":{"POSITION":65,"NORMAL":66}}]},{"name":"Mesh0","primitives":[{"indices":70,"material":6,"attributes":{"POSITION":68,"NORMAL":69}}]}],"accessors":[{"bufferView":0,"componentType":5126,"count":890,"type":"VEC3","min":[-2.6453245,2.1162326,0.016601512],"max":[-1.8465159,2.8766255,1.8961746]},{"bufferView":1,"componentType":5126,"count":890,"type":"VEC3"},{"bufferView":2,"componentType":5126,"count":890,"type":"VEC2"},{"bufferView":3,"componentType":5123,"count":10656,"type":"SCALAR"},{"bufferView":4,"componentType":5126,"count":890,"type":"VEC3","min":[1.9057472,2.418341,-0.07942876],"max":[2.4248617,2.9194095,1.2729397]},{"bufferView":5,"componentType":5126,"count":890,"type":"VEC3"},{"bufferView":6,"componentType":5126,"count":890,"type":"VEC2"},{"bufferView":7,"componentType":5123,"count":10656,"type":"SCALAR"},{"bufferView":8,"componentType":5126,"count":890,"type":"VEC3","min":[1.2916923,3.61276,-0.007469328],"max":[2.0078163,4.2577,1.6943907]},{"bufferView":9,"componentType":5126,"count":890,"type":"VEC3"},{"bufferView":10,"componentType":5126,"count":890,"type":"VEC2"},{"bufferView":11,"componentType":5123,"count":10656,"type":"SCALAR"},{"bufferView":12,"componentType":5126,"count":890,"type":"VEC3","min":[-0.75788677,2.1162326,-0.48932463],"max":[0.040921837,2.8766255,1.3902484]},{"bufferView":13,"componentType":5126,"count":890,"type":"VEC3"},{"bufferView":14,"componentType":5126,"count":890,"type":"VEC2"},{"bufferView":15,"componentType":5123,"count":10656,"type":"SCALAR"},{"bufferView":16,"componentType":5126,"count":890,"type":"VEC3","min":[0.54520315,0.84853554,-0.07942876],"max":[1.0643177,1.3496041,1.2729397]},{"bufferView":17,"componentType":5126,"count":890,"type":"VEC3"},{"bufferView":18,"componentType":5126,"count":890,"type":"VEC2"},{"bufferView":19,"componentType":5123,"count":10656,"type":"SCALAR"},{"bufferView":20,"componentType":5126,"count":890,"type":"VEC3","min":[-1.2101599,-0.13608217,-0.19475308],"max":[-0.5559891,0.648376,1.563222]},{"bufferView":21,"componentType":5126,"count":890,"type":"VEC3"},{"bufferView":22,"componentType":5126,"count":890,"type":"VEC2"},{"bufferView":23,"componentType":5123,"count":10656,"type":"SCALAR"},{"bufferView":24,"componentType":5126,"count":890,"type":"VEC3","min":[-3.4890795,1.1886075,-0.19755417],"max":[-2.7729554,1.8335475,1.5043058]},{"bufferView":25,"componentType":5126,"count":890,"type":"VEC3"},{"bufferView":26,"componentType":5126,"count":890,"type":"VEC2"},{"bufferView":27,"componentType":5123,"count":10656,"type":"SCALAR"},{"bufferView":28,"componentType":5126,"count":890,"type":"VEC3","min":[0.5348292,6.6208415,-0.07512631],"max":[1.2509534,7.2657814,1.6267337]},{"bufferView":29,"componentType":5126,"count":890,"type":"VEC3"},{"bufferView":30,"componentType":5126,"count":890,"type":"VEC2"},{"bufferView":31,"componentType":5123,"count":10656,"type":"SCALAR"},{"bufferView":32,"componentType":5126,"count":8,"type":"VEC3","min":[-2.6620533,-4.5675898,-7.1707277],"max":[4.4979315,2.5923955,-0.010742426]},{"bufferView":33,"componentType":5126,"count":8,"type":"VEC3"},{"bufferView":34,"componentType":5123,"count":36,"type":"SCALAR"},{"bufferView":35,"componentType":5126,"count":8,"type":"VEC3","min":[-2.6620533,-4.358535,-7.1707277],"max":[4.4979315,2.8014505,-0.010742426]},{"bufferView":36,"componentType":5126,"count":8,"type":"VEC3"},{"bufferView":37,"componentType":5123,"count":36,"type":"SCALAR"},{"bufferView":38,"componentType":5126,"count":8,"type":"VEC3","min":[0.24421763,-2.6851656,-7.1707277],"max":[7.4042025,4.474819,-0.010742426]},{"bufferView":39,"componentType":5126,"count":8,"type":"VEC3"},{"bufferView":40,"componentType":5123,"count":36,"type":"SCALAR"},{"bufferView":41,"componentType":5126,"count":8,"type":"VEC3","min":[-4.7892494,-2.6851656,-7.1707277],"max":[2.3707354,4.474819,-0.010742426]},{"bufferView":42,"componentType":5126,"count":8,"type":"VEC3"},{"bufferView":43,"componentType":5123,"count":36,"type":"SCALAR"},{"bufferView":44,"componentType":5126,"count":4096,"type":"VEC3","min":[-6.1479096,3.7504835,-0.9437972],"max":[9.904568,19.810658,3.6732213]},{"bufferView":45,"componentType":5126,"count":4096,"type":"VEC3"},{"bufferView":46,"componentType":5123,"count":23814,"type":"SCALAR"},{"bufferView":47,"componentType":5126,"count":4096,"type":"VEC3","min":[-0.52815723,4.8385897,-1.7854953],"max":[13.355805,18.722553,2.3088765]},{"bufferView":48,"componentType":5126,"count":4096,"type":"VEC3"},{"bufferView":49,"componentType":5123,"count":23814,"type":"SCALAR"},{"bufferView":50,"componentType":5126,"count":4096,"type":"VEC3","min":[-10.405628,3.9643135,-2.7425337],"max":[5.3071675,19.596828,2.3486557]},{"bufferView":51,"componentType":5126,"count":4096,"type":"VEC3"},{"bufferView":52,"componentType":5123,"count":23814,"type":"SCALAR"},{"bufferView":53,"componentType":5126,"count":4,"type":"VEC3","min":[-6.835462,3.9943295,4.114202],"max":[8.898377,8.947466,4.114202]},{"bufferView":54,"componentType":5126,"count":4,"type":"VEC3"},{"bufferView":55,"componentType":5123,"count":6,"type":"SCALAR"},{"bufferView":56,"componentType":5126,"count":482,"type":"VEC3","min":[-11.486424,-11.179103,-5.058268],"max":[-9.486424,-9.179103,-3.058268]},{"bufferView":57,"componentType":5126,"count":482,"type":"VEC3"},{"bufferView":58,"componentType":5123,"count":2880,"type":"SCALAR"},{"bufferView":59,"componentType":5126,"count":8,"type":"VEC3","min":[0.6097095,-0.27431786,-0.40244114],"max":[1.0722162,0.23420344,0.10208346]},{"bufferView":60,"componentType":5126,"count":8,"type":"VEC3"},{"bufferView":61,"componentType":5123,"count":36,"type":"SCALAR"},{"bufferView":62,"componentType":5126,"count":32,"type":"VEC3","min":[-1.7162309,-0.4114203,-0.5641928],"max":[-0.89350116,0.41136461,0.16798538]},{"bufferView":63,"componentType":5126,"count":32,"type":"VEC3"},{"bufferView":64,"componentType":5123,"count":180,"type":"SCALAR"},{"bufferView":65,"componentType":5126,"count":32,"type":"VEC3","min":[-0.40708888,-0.21650618,-0.37214836],"max":[0.42955208,0.21650618,0.10694815]},{"bufferView":66,"componentType":5126,"count":32,"type":"VEC3"},{"bufferView":67,"componentType":5123,"count":180,"type":"SCALAR"},{"bufferView":68,"componentType":5126,"count":4,"type":"VEC3","min":[-8.03478,-8.03478,-0.0014748126],"max":[8.03478,8.03478,-0.0014748126]},{"bufferView":69,"componentType":5126,"count":4,"type":"VEC3"},{"bufferView":70,"componentType":5123,"count":6,"type":"SCALAR"}],"bufferViews":[{"target":34962,"buffer":0,"byteLength":10680,"byteOffset":0},{"target":34962,"buffer":0,"byteLength":10680,"byteOffset":10680},{"target":34962,"buffer":0,"byteLength":7120,"byteOffset":21360},{"target":34963,"buffer":0,"byteLength":21312,"byteOffset":28480},{"target":34962,"buffer":0,"byteLength":10680,"byteOffset":49792},{"target":34962,"buffer":0,"byteLength":10680,"byteOffset":60472},{"target":34962,"buffer":0,"byteLength":7120,"byteOffset":71152},{"target":34963,"buffer":0,"byteLength":21312,"byteOffset":78272},{"target":34962,"buffer":0,"byteLength":10680,"byteOffset":99584},{"target":34962,"buffer":0,"byteLength":10680,"byteOffset":110264},{"target":34962,"buffer":0,"byteLength":7120,"byteOffset":120944},{"target":34963,"buffer":0,"byteLength":21312,"byteOffset":128064},{"target":34962,"buffer":0,"byteLength":10680,"byteOffset":149376},{"target":34962,"buffer":0,"byteLength":10680,"byteOffset":160056},{"target":34962,"buffer":0,"byteLength":7120,"byteOffset":170736},{"target":34963,"buffer":0,"byteLength":21312,"byteOffset":177856},{"target":34962,"buffer":0,"byteLength":10680,"byteOffset":199168},{"target":34962,"buffer":0,"byteLength":10680,"byteOffset":209848},{"target":34962,"buffer":0,"byteLength":7120,"byteOffset":220528},{"target":34963,"buffer":0,"byteLength":21312,"byteOffset":227648},{"target":34962,"buffer":0,"byteLength":10680,"byteOffset":248960},{"target":34962,"buffer":0,"byteLength":10680,"byteOffset":259640},{"target":34962,"buffer":0,"byteLength":7120,"byteOffset":270320},{"target":34963,"buffer":0,"byteLength":21312,"byteOffset":277440},{"target":34962,"buffer":0,"byteLength":10680,"byteOffset":298752},{"target":34962,"buffer":0,"byteLength":10680,"byteOffset":309432},{"target":34962,"buffer":0,"byteLength":7120,"byteOffset":320112},{"target":34963,"buffer":0,"byteLength":21312,"byteOffset":327232},{"target":34962,"buffer":0,"byteLength":10680,"byteOffset":348544},{"target":34962,"buffer":0,"byteLength":10680,"byteOffset":359224},{"target":34962,"buffer":0,"byteLength":7120,"byteOffset":369904},{"target":34963,"buffer":0,"byteLength":21312,"byteOffset":377024},{"target":34962,"buffer":0,"byteLength":96,"byteOffset":398336},{"target":34962,"buffer":0,"byteLength":96,"byteOffset":398432},{"target":34963,"buffer":0,"byteLength":72,"byteOffset":398528},{"target":34962,"buffer":0,"byteLength":96,"byteOffset":398600},{"target":34962,"buffer":0,"byteLength":96,"byteOffset":398696},{"target":34963,"buffer":0,"byteLength":72,"byteOffset":398792},{"target":34962,"buffer":0,"byteLength":96,"byteOffset":398864},{"target":34962,"buffer":0,"byteLength":96,"byteOffset":398960},{"target":34963,"buffer":0,"byteLength":72,"byteOffset":399056},{"target":34962,"buffer":0,"byteLength":96,"byteOffset":399128},{"target":34962,"buffer":0,"byteLength":96,"byteOffset":399224},{"target":34963,"buffer":0,"byteLength":72,"byteOffset":399320},{"target":34962,"buffer":0,"byteLength":49152,"byteOffset":399392},{"target":34962,"buffer":0,"byteLength":49152,"byteOffset":448544},{"target":34963,"buffer":0,"byteLength":47628,"byteOffset":497696},{"target":34962,"buffer":0,"byteLength":49152,"byteOffset":545324},{"target":34962,"buffer":0,"byteLength":49152,"byteOffset":594476},{"target":34963,"buffer":0,"byteLength":47628,"byteOffset":643628},{"target":34962,"buffer":0,"byteLength":49152,"byteOffset":691256},{"target":34962,"buffer":0,"byteLength":49152,"byteOffset":740408},{"target":34963,"buffer":0,"byteLength":47628,"byteOffset":789560},{"target":34962,"buffer":0,"byteLength":48,"byteOffset":837188},{"target":34962,"buffer":0,"byteLength":48,"byteOffset":837236},{"target":34963,"buffer":0,"byteLength":12,"byteOffset":837284},{"target":34962,"buffer":0,"byteLength":5784,"byteOffset":837296},{"target":34962,"buffer":0,"byteLength":5784,"byteOffset":843080},{"target":34963,"buffer":0,"byteLength":5760,"byteOffset":848864},{"target":34962,"buffer":0,"byteLength":96,"byteOffset":854624},{"target":34962,"buffer":0,"byteLength":96,"byteOffset":854720},{"target":34963,"buffer":0,"byteLength":72,"byteOffset":854816},{"target":34962,"buffer":0,"byteLength":384,"byteOffset":854888},{"target":34962,"buffer":0,"byteLength":384,"byteOffset":855272},{"target":34963,"buffer":0,"byteLength":360,"byteOffset":855656},{"target":34962,"buffer":0,"byteLength":384,"byteOffset":856016},{"target":34962,"buffer":0,"byteLength":384,"byteOffset":856400},{"target":34963,"buffer":0,"byteLength":360,"byteOffset":856784},{"target":34962,"buffer":0,"byteLength":48,"byteOffset":857144},{"target":34962,"buffer":0,"byteLength":48,"byteOffset":857192},{"target":34963,"buffer":0,"byteLength":12,"byteOffset":857240}],"buffers":[{"byteLength":857252,"uri":"data:application/octet-stream;base64,"}]}